<svg width="1200" height="1200" viewBox="0 0 1200 1200" fill="none" xmlns="http://www.w3.org/2000/svg" role="img" aria-label="Chista logo">
  <defs>
    <radialGradient id="face" cx="50%" cy="34%" r="80%">
      <stop offset="0%" stop-color="#23232f"/>
      <stop offset="55%" stop-color="#15151d"/>
      <stop offset="100%" stop-color="#080810"/>
    </radialGradient>
    <linearGradient id="gold" x1="0" y1="300" x2="0" y2="900" gradientUnits="userSpaceOnUse">
      <stop offset="0%" stop-color="#fbe7a6"/>
      <stop offset="32%" stop-color="#e7c65d"/>
      <stop offset="62%" stop-color="#c79a33"/>
      <stop offset="100%" stop-color="#90671a"/>
    </linearGradient>
    <linearGradient id="goldBezel" x1="0" y1="80" x2="0" y2="1120" gradientUnits="userSpaceOnUse">
      <stop offset="0%" stop-color="#fcedb4"/>
      <stop offset="50%" stop-color="#d4af37"/>
      <stop offset="100%" stop-color="#7e5b16"/>
    </linearGradient>
    <linearGradient id="goldSoft" x1="0" y1="400" x2="0" y2="820" gradientUnits="userSpaceOnUse">
      <stop offset="0%" stop-color="#fff3c8"/>
      <stop offset="100%" stop-color="#caa64b"/>
    </linearGradient>
    <linearGradient id="win" x1="0" y1="0" x2="0" y2="1" >
      <stop offset="0%" stop-color="#fbe39a"/>
      <stop offset="100%" stop-color="#c79a33"/>
    </linearGradient>
    <linearGradient id="cubeTop" x1="0" y1="0" x2="0" y2="1"><stop offset="0%" stop-color="#fdeeb0"/><stop offset="100%" stop-color="#e9cb68"/></linearGradient>
    <linearGradient id="cubeL" x1="0" y1="0" x2="0" y2="1"><stop offset="0%" stop-color="#d8ad3f"/><stop offset="100%" stop-color="#a87f25"/></linearGradient>
    <linearGradient id="cubeR" x1="0" y1="0" x2="0" y2="1"><stop offset="0%" stop-color="#b88a2b"/><stop offset="100%" stop-color="#835f17"/></linearGradient>
    <filter id="soft" x="-10%" y="-10%" width="120%" height="120%"><feDropShadow dx="0" dy="3" stdDeviation="4" flood-color="#000" flood-opacity="0.35"/></filter>
    <filter id="cast" x="-20%" y="-20%" width="140%" height="140%"><feDropShadow dx="0" dy="10" stdDeviation="16" flood-color="#000" flood-opacity="0.5"/></filter>
  </defs>
  <rect x="80" y="80" width="1040" height="1040" rx="236" fill="url(#face)" stroke="url(#goldBezel)" stroke-width="16"/>
  <rect x="118" y="118" width="964" height="964" rx="206" fill="none" stroke="#d4af37" stroke-width="4" opacity="0.45"/>

  <!-- monitor -->
  <g filter="url(#soft)">
    <rect x="318" y="378" width="564" height="408" rx="44" fill="none" stroke="url(#gold)" stroke-width="22" stroke-linejoin="round"/>
    <path d="M566,786 L634,786 L652,858 L548,858 Z" fill="url(#gold)"/>
    <rect x="486" y="856" width="228" height="30" rx="15" fill="url(#gold)"/>
  </g>

  <!-- window panels (behind the shield) -->
  <g filter="url(#soft)">
    <path d="M396,520 L476,502 L476,706 L396,682 Z" fill="#0c0c15" stroke="url(#gold)" stroke-width="5" stroke-linejoin="round"/>
    <rect x="410.9" y="542.1" width="14" height="14" rx="2" fill="url(#win)"/>
    <rect x="429" y="539.9" width="14" height="14" rx="2" fill="url(#win)"/>
    <rect x="447.1" y="537.7" width="14" height="14" rx="2" fill="url(#win)"/>
    <rect x="410.9" y="568.5" width="14" height="14" rx="2" fill="url(#win)"/>
    <rect x="429" y="567.7" width="14" height="14" rx="2" fill="url(#win)"/>
    <rect x="447.1" y="566.9" width="14" height="14" rx="2" fill="url(#win)"/>
    <rect x="410.9" y="594.8" width="14" height="14" rx="2" fill="url(#win)"/>
    <rect x="429" y="595.5" width="14" height="14" rx="2" fill="url(#win)"/>
    <rect x="447.1" y="596.2" width="14" height="14" rx="2" fill="url(#win)"/>
    <rect x="410.9" y="621.2" width="14" height="14" rx="2" fill="url(#win)"/>
    <rect x="429" y="623.3" width="14" height="14" rx="2" fill="url(#win)"/>
    <rect x="447.1" y="625.4" width="14" height="14" rx="2" fill="url(#win)"/>
    <rect x="410.9" y="647.6" width="14" height="14" rx="2" fill="url(#win)"/>
    <rect x="429" y="651.1" width="14" height="14" rx="2" fill="url(#win)"/>
    <rect x="447.1" y="654.7" width="14" height="14" rx="2" fill="url(#win)"/>
    <path d="M304,546 L388,518 L388,694 L304,660 Z" fill="#0c0c15" stroke="url(#gold)" stroke-width="5" stroke-linejoin="round"/>
    <rect x="324.7" y="558.7" width="14" height="14" rx="2" fill="url(#win)"/>
    <rect x="353.3" y="553.7" width="14" height="14" rx="2" fill="url(#win)"/>
    <rect x="324.7" y="584.2" width="14" height="14" rx="2" fill="url(#win)"/>
    <rect x="353.3" y="583.2" width="14" height="14" rx="2" fill="url(#win)"/>
    <rect x="324.7" y="609.8" width="14" height="14" rx="2" fill="url(#win)"/>
    <rect x="353.3" y="612.8" width="14" height="14" rx="2" fill="url(#win)"/>
    <rect x="324.7" y="635.3" width="14" height="14" rx="2" fill="url(#win)"/>
    <rect x="353.3" y="642.3" width="14" height="14" rx="2" fill="url(#win)"/>
    <path d="M724,502 L804,520 L804,682 L724,706 Z" fill="#0c0c15" stroke="url(#gold)" stroke-width="5" stroke-linejoin="round"/>
    <rect x="738.9" y="537.7" width="14" height="14" rx="2" fill="url(#win)"/>
    <rect x="757" y="539.9" width="14" height="14" rx="2" fill="url(#win)"/>
    <rect x="775.1" y="542.1" width="14" height="14" rx="2" fill="url(#win)"/>
    <rect x="738.9" y="566.9" width="14" height="14" rx="2" fill="url(#win)"/>
    <rect x="757" y="567.7" width="14" height="14" rx="2" fill="url(#win)"/>
    <rect x="775.1" y="568.5" width="14" height="14" rx="2" fill="url(#win)"/>
    <rect x="738.9" y="596.2" width="14" height="14" rx="2" fill="url(#win)"/>
    <rect x="757" y="595.5" width="14" height="14" rx="2" fill="url(#win)"/>
    <rect x="775.1" y="594.8" width="14" height="14" rx="2" fill="url(#win)"/>
    <rect x="738.9" y="625.4" width="14" height="14" rx="2" fill="url(#win)"/>
    <rect x="757" y="623.3" width="14" height="14" rx="2" fill="url(#win)"/>
    <rect x="775.1" y="621.2" width="14" height="14" rx="2" fill="url(#win)"/>
    <rect x="738.9" y="654.7" width="14" height="14" rx="2" fill="url(#win)"/>
    <rect x="757" y="651.1" width="14" height="14" rx="2" fill="url(#win)"/>
    <rect x="775.1" y="647.6" width="14" height="14" rx="2" fill="url(#win)"/>
    <path d="M812,518 L896,546 L896,660 L812,694 Z" fill="#0c0c15" stroke="url(#gold)" stroke-width="5" stroke-linejoin="round"/>
    <rect x="832.7" y="553.7" width="14" height="14" rx="2" fill="url(#win)"/>
    <rect x="861.3" y="558.7" width="14" height="14" rx="2" fill="url(#win)"/>
    <rect x="832.7" y="583.2" width="14" height="14" rx="2" fill="url(#win)"/>
    <rect x="861.3" y="584.2" width="14" height="14" rx="2" fill="url(#win)"/>
    <rect x="832.7" y="612.8" width="14" height="14" rx="2" fill="url(#win)"/>
    <rect x="861.3" y="609.8" width="14" height="14" rx="2" fill="url(#win)"/>
    <rect x="832.7" y="642.3" width="14" height="14" rx="2" fill="url(#win)"/>
    <rect x="861.3" y="635.3" width="14" height="14" rx="2" fill="url(#win)"/>
  </g>

  <!-- shield: bold gold frame (outer thick + inner thin rule) -->
  <g filter="url(#cast)">
    <path d="M508,432 L692,432 Q708,432 708,450 L708,566 C708,676 664,748 600,796 C536,748 492,676 492,566 L492,450 Q492,432 508,432 Z" fill="#0e0e1a" stroke="url(#gold)" stroke-width="26" stroke-linejoin="round"/>
    <path d="M520,452 L680,452 Q692,452 692,466 L692,566 C692,664 654,730 600,772 C546,730 508,664 508,566 L508,466 Q508,452 520,452 Z" fill="none" stroke="url(#goldSoft)" stroke-width="6" stroke-linejoin="round" opacity="0.55"/>
  </g>

  <!-- isometric cube -->
  <g stroke="#6f5512" stroke-width="3" stroke-linejoin="round">
    <polygon points="600,486 676,528 600,570 524,528" fill="url(#cubeTop)"/>
    <polygon points="524,528 600,570 600,656 524,612" fill="url(#cubeL)"/>
    <polygon points="600,570 676,528 676,612 600,656" fill="url(#cubeR)"/>
  </g>
</svg>
